# xmcd
#
# Track frame offsets: 
#        150
#        25093
#        47727
#        72184
#        101147
#        123860
#        141222
#        168014
#        194949
#        223417
#        246404
#
# Disc length: 3641 seconds
#
# Revision: 0
# Processed by: cddbd v1.5.2PL0 Copyright (c) Steve Scherf et al.
# Submitted via: ExactAudioCopy v0.95b4
#
DISCID=a90e370b
DTITLE=Shades Of Blue - Feels Like The First Time Disc 1
DYEAR=2007
DGENRE=Blues
TTITLE0=Who's Been Talking
TTITLE1=I Feel So Good
TTITLE2=One Way Out
TTITLE3=Blues Gon Take My Life
TTITLE4=Cross-Eyed Cat
TTITLE5=Two-Timer
TTITLE6=Mean Disposition
TTITLE7=Fishing Blues
TTITLE8=Checkin' Up On My Baby
TTITLE9=Feels Like The First Time
TTITLE10=I Done Got Wise
EXTD=
EXTT0=
EXTT1=
EXTT2=
EXTT3=
EXTT4=
EXTT5=
EXTT6=
EXTT7=
EXTT8=
EXTT9=
EXTT10=
PLAYORDER=
